<?xml version='1.0' encoding='utf-8'?>
<svg xmlns:xlink="http://www.w3.org/1999/xlink" xmlns="http://www.w3.org/2000/svg" width="1863.7271mm" height="1502.017mm" viewBox="0 0 1863.7271 1502.0169" version="1.1" id="svg8"> <defs id="defs2"> <linearGradient id="linearGradient999"> <stop style="stop-color:#292929;stop-opacity:1;" offset="0" id="stop995"/> <stop style="stop-color:#434343;stop-opacity:1" offset="1" id="stop997"/> </linearGradient> <linearGradient id="linearGradient979"> <stop style="stop-color:#9d3800;stop-opacity:1;" offset="0" id="stop975"/> </linearGradient> <linearGradient id="linearGradient956"> <stop style="stop-color:#e90000;stop-opacity:1" offset="0" id="stop952"/> <stop style="stop-color:#810000;stop-opacity:1" offset="1" id="stop954"/> </linearGradient> <linearGradient id="linearGradient940"> <stop style="stop-color:#e37474;stop-opacity:1;" offset="0" id="stop936"/> <stop style="stop-color:#cc0000;stop-opacity:1" offset="1" id="stop938"/> </linearGradient> <linearGradient id="linearGradient928"> <stop style="stop-color:#ffa724;stop-opacity:1" offset="0" id="stop924"/> <stop style="stop-color:#b94100;stop-opacity:1" offset="1" id="stop926"/> </linearGradient> <linearGradient id="linearGradient918"> <stop style="stop-color:#3a3a3a;stop-opacity:1" offset="0" id="stop914"/> <stop style="stop-color:#151515;stop-opacity:1" offset="1" id="stop916"/> </linearGradient> <linearGradient id="linearGradient900"> <stop style="stop-color:#cc0000;stop-opacity:1;" offset="0" id="stop896"/> <stop style="stop-color:#870000;stop-opacity:1" offset="1" id="stop898"/> </linearGradient> <linearGradient xlink:href="#linearGradient900" id="linearGradient902" x1="8.3154736" y1="-76.440468" x2="58.964294" y2="15.029761" gradientUnits="userSpaceOnUse" gradientTransform="matrix(0.85356702,0,0,0.85356702,-13.710204,39.199254)"/> <linearGradient xlink:href="#linearGradient918" id="linearGradient920" x1="10.181195" y1="-98.052673" x2="26.439896" y2="1.3715944" gradientUnits="userSpaceOnUse" gradientTransform="matrix(0.85356702,0,0,0.85356702,-13.710204,39.199254)"/> <linearGradient xlink:href="#linearGradient928" id="linearGradient930" x1="95.250145" y1="-91.17601" x2="-12.85134" y2="185.50256" gradientUnits="userSpaceOnUse" gradientTransform="matrix(0.85356702,0,0,0.85356702,-13.710204,39.199254)"/> <linearGradient xlink:href="#linearGradient940" id="linearGradient942" x1="-92.992798" y1="118.74123" x2="-56.780273" y2="152.95174" gradientUnits="userSpaceOnUse" gradientTransform="matrix(0.85356702,0,0,0.85356702,-13.710204,39.199254)"/> <linearGradient xlink:href="#linearGradient940" id="linearGradient950" x1="152.89516" y1="134.24286" x2="140.99916" y2="155.62444" gradientUnits="userSpaceOnUse" gradientTransform="matrix(0.85356702,0,0,0.85356702,-13.710204,39.199254)"/> <linearGradient xlink:href="#linearGradient956" id="linearGradient958" x1="-103.56521" y1="132.18919" x2="-49.768517" y2="184.03947" gradientUnits="userSpaceOnUse" gradientTransform="matrix(0.85356702,0,0,0.85356702,-13.710204,39.199254)"/> <linearGradient xlink:href="#linearGradient956" id="linearGradient966" x1="158.88254" y1="156.8252" x2="133.92397" y2="196.13472" gradientUnits="userSpaceOnUse" gradientTransform="matrix(0.85356702,0,0,0.85356702,-13.710204,39.199254)"/> <linearGradient xlink:href="#linearGradient979" id="linearGradient981" x1="-62.74168" y1="152.06322" x2="-28.76158" y2="198.03357" gradientUnits="userSpaceOnUse" gradientTransform="matrix(0.85356702,0,0,0.85356702,-13.710204,39.199254)"/> <linearGradient xlink:href="#linearGradient979" id="linearGradient988" gradientUnits="userSpaceOnUse" gradientTransform="matrix(-0.85120859,-0.06340822,-0.06340822,0.85120859,34.527476,39.517089)" x1="-62.74168" y1="152.06322" x2="-28.76158" y2="198.03357"/> <linearGradient xlink:href="#linearGradient999" id="linearGradient1001" x1="26.128353" y1="101.45101" x2="27.376644" y2="85.949379" gradientUnits="userSpaceOnUse" gradientTransform="matrix(0.85356702,0,0,0.85356702,-13.710204,39.199254)"/> </defs> <metadata id="metadata5"> </metadata> <g id="layer1" transform="translate(948.18781,685.22034)"> <rect style="opacity:1;fill:#8eaff2;fill-opacity:1;fill-rule:evenodd;stroke:none;stroke-width:40.54938889;stroke-linecap:square;stroke-linejoin:miter;stroke-miterlimit:4;stroke-dasharray:none;stroke-dashoffset:0;stroke-opacity:1;paint-order:normal" id="rect1078" width="1863.7271" height="1502.017" x="-948.18781" y="-685.22034"/> <g id="g1076" transform="matrix(2.568524,0,0,2.568524,-60.084977,-42.005799)"> <path id="rect825" d="m -29.841604,195.27499 h 72.268672 l 9.361778,46.97399 c 1.610495,6.5639 2.561194,7.9681 -3.50901,8.83649 -33.957475,4.84771 -59.879505,3.2156 -82.857905,-0.79027 -5.514115,-0.50512 -4.833318,-1.51479 -3.892904,-6.77272 z" style="opacity:1;fill:#292929;fill-opacity:1;fill-rule:evenodd;stroke:none;stroke-width:14.45333862;stroke-linecap:square;stroke-linejoin:miter;stroke-miterlimit:4;stroke-dasharray:none;stroke-dashoffset:0;stroke-opacity:1;paint-order:normal"/> <path id="path1040" transform="matrix(0.26458333,0,0,0.26458333,-424.53851,-265.319)" d="m 1491.7676,1740.8281 -16.4199,91.8008 a 213.21428,118.92857 0 0 0 148.58,33.7988 213.21428,118.92857 0 0 0 158.168,-39.373 l -17.1855,-86.2266 z" style="opacity:1;fill:#111111;fill-opacity:1;fill-rule:evenodd;stroke:none;stroke-width:103.75263214;stroke-linecap:square;stroke-linejoin:miter;stroke-miterlimit:4;stroke-dasharray:none;stroke-dashoffset:0;stroke-opacity:1;paint-order:normal"/> <path id="path815" d="m 6.6153614,-131.22452 c -26.6111084,5e-5 -52.1322834,17.22415 -70.9491564,47.883173 -18.816873,30.659045 -29.388065,72.241584 -29.388031,115.599951 0.0077,59.997957 20.185137,152.473466 52.5677,181.037896 27.912799,5.02885 55.724144,10.18913 95.383269,0 C 86.671907,184.79944 106.91415,92.310805 106.95255,32.258604 106.95258,-11.099763 96.381386,-52.682302 77.564518,-83.341347 58.747645,-114.00037 33.226469,-131.22447 6.6153614,-131.22452 Z" style="opacity:1;fill:url(#linearGradient930);fill-opacity:1;fill-rule:evenodd;stroke:none;stroke-width:18.88654709;stroke-linecap:square;stroke-linejoin:miter;stroke-miterlimit:4;stroke-dasharray:none;stroke-dashoffset:0;stroke-opacity:1;paint-order:normal"/> <circle style="opacity:1;fill:#c24c00;fill-opacity:1;fill-rule:evenodd;stroke:none;stroke-width:17.07134056;stroke-linecap:square;stroke-linejoin:miter;stroke-miterlimit:4;stroke-dasharray:none;stroke-dashoffset:0;stroke-opacity:1;paint-order:normal" id="circle904" cx="6.7444134" cy="4.9244733" r="67.106628"/> <path id="path861" d="M 63.152155,-99.759341 C 78.170619,2.1405854 5.7276295,19.897344 -27.569745,28.182264 18.199543,17.253609 80.568792,19.465895 89.017228,-56.126137 85.33511,-65.370618 81.045074,-74.032249 76.188943,-81.944536 72.143189,-88.536429 67.77728,-94.487148 63.152155,-99.759341 Z" style="opacity:1;fill:#ffc774;fill-opacity:1;stroke:none;stroke-width:0.21920636px;stroke-linecap:butt;stroke-linejoin:miter;stroke-opacity:1"/> <ellipse ry="11.289224" rx="36.456966" cy="-121.22031" cx="6.6153612" id="path817" style="opacity:1;fill:#cc0000;fill-opacity:1;fill-rule:evenodd;stroke:none;stroke-width:14.88914299;stroke-linecap:square;stroke-linejoin:miter;stroke-miterlimit:4;stroke-dasharray:none;stroke-dashoffset:0;stroke-opacity:1;paint-order:normal"/> <path id="rect819" d="m 5.148369,-180.98991 h 2.9339847 c 2.5832683,0 4.2060043,13.1704 4.6629393,15.71294 l 6.615841,36.81269 c 0.456935,2.54254 -8.695512,4.66293 -11.2787803,4.66293 H 5.148369 c -2.5832685,0 -12.8304757,-2.13359 -12.3053766,-4.66293 l 7.64243725,-36.81269 c 0.52509905,-2.52934 2.07967085,-15.71294 4.66293935,-15.71294 z" style="opacity:1;fill:#cc0000;fill-opacity:1;fill-rule:evenodd;stroke:none;stroke-width:14.88914299;stroke-linecap:square;stroke-linejoin:miter;stroke-miterlimit:4;stroke-dasharray:none;stroke-dashoffset:0;stroke-opacity:1;paint-order:normal"/> <circle r="67.106628" cy="-0.23757431" cx="6.9379902" id="path828" style="opacity:1;fill:url(#linearGradient902);fill-opacity:1;fill-rule:evenodd;stroke:none;stroke-width:17.07134056;stroke-linecap:square;stroke-linejoin:miter;stroke-miterlimit:4;stroke-dasharray:none;stroke-dashoffset:0;stroke-opacity:1;paint-order:normal"/> <path id="circle1021" d="M -46.935673,-10.341013 A 54.846761,54.846761 0 0 0 -49.049392,4.5533736 54.846761,54.846761 0 0 0 5.7974332,59.399756 54.846761,54.846761 0 0 0 59.670765,14.656608 54.846761,54.846761 0 0 1 6.9380996,54.609045 54.846761,54.846761 0 0 1 -47.908724,-0.23777821 54.846761,54.846761 0 0 1 -46.935673,-10.341013 Z" style="opacity:1;fill:#6e0b0b;fill-opacity:1;fill-rule:evenodd;stroke:none;stroke-width:13.95253658;stroke-linecap:square;stroke-linejoin:miter;stroke-miterlimit:4;stroke-dasharray:none;stroke-dashoffset:0;stroke-opacity:1;paint-order:normal"/> <circle style="opacity:1;fill:url(#linearGradient920);fill-opacity:1;fill-rule:evenodd;stroke:none;stroke-width:13.95253754;stroke-linecap:square;stroke-linejoin:miter;stroke-miterlimit:4;stroke-dasharray:none;stroke-dashoffset:0;stroke-opacity:1;paint-order:normal" id="circle830" cx="6.9379902" cy="-0.23757431" r="54.84676"/> <path id="path973" d="m -57.511618,146.70376 -14.253919,13.27778 c 8.250343,23.29141 18.588767,42.70981 30.611411,53.3149 1.789833,0.32246 3.579481,0.64522 5.37163,0.96468 -10.199475,-19.18462 -16.057353,-41.29356 -21.729122,-67.55736 z" style="fill:url(#linearGradient981);fill-opacity:1;stroke:none;stroke-width:0.2258396px;stroke-linecap:butt;stroke-linejoin:miter;stroke-opacity:1"/> <path id="path842" d="m -66.265316,128.75592 c 0,0 -38.420504,17.77832 -47.708284,35.73935 -14.65705,28.3443 -6.99964,74.1295 -3.77548,96.49623 0.42761,2.96642 8.13947,4.03644 8.58063,1.07217 3.28784,-22.09162 4.32732,-54.16419 19.907049,-73.98043 7.811335,-9.93544 32.949614,-17.51229 32.949614,-17.51229 1.038553,-27.54702 -4.816621,-33.55916 -9.953529,-41.81503 z" style="fill:url(#linearGradient958);fill-opacity:1;stroke:none;stroke-width:0.1733588px;stroke-linecap:butt;stroke-linejoin:miter;stroke-opacity:1"/> <path style="fill:url(#linearGradient988);fill-opacity:1;stroke:none;stroke-width:0.2258396px;stroke-linecap:butt;stroke-linejoin:miter;stroke-opacity:1" d="m 70.221767,149.9784 13.228189,14.29996 c -9.957781,22.61416 -21.710165,41.21092 -34.487402,50.89359 -1.808837,0.18861 -3.617516,0.37753 -5.428445,0.56296 11.596439,-18.37392 19.080526,-39.98661 26.687658,-65.75651 z" id="path986"/> <path style="fill:url(#linearGradient966);fill-opacity:1;stroke:none;stroke-width:0.1733588px;stroke-linecap:butt;stroke-linejoin:miter;stroke-opacity:1" d="m 78.424785,132.62746 c 0,0 38.420505,17.77831 47.708285,35.73934 14.65705,28.34431 6.99964,74.12951 3.77548,96.49624 -0.42761,2.96642 -8.13947,4.03644 -8.58063,1.07217 -3.28784,-22.09162 -4.32732,-54.16418 -19.90705,-73.98043 -7.811332,-9.93544 -32.949619,-17.51229 -32.949619,-17.51229 -1.038552,-27.54703 4.816623,-33.55916 9.953534,-41.81503 z" id="path844"/> <path id="path908" d="m -89.56364,84.016947 a 98.401536,39.845546 0 0 0 -0.131885,0.410216 c 0.865252,6.067874 1.86536,12.188283 2.994134,18.301387 A 98.401536,39.845546 0 0 0 7.2602391,130.74943 98.401536,39.845546 0 0 0 99.536007,104.65789 c 1.148033,-6.051183 2.168013,-12.11617 3.058533,-18.136858 A 98.401536,39.845546 0 0 1 7.2602391,116.8272 98.401536,39.845546 0 0 1 -89.56364,84.016947 Z" style="opacity:1;fill:#c24c00;fill-opacity:1;fill-rule:evenodd;stroke:none;stroke-width:13.82497501;stroke-linecap:square;stroke-linejoin:miter;stroke-miterlimit:4;stroke-dasharray:none;stroke-dashoffset:0;stroke-opacity:1;paint-order:normal"/> <path id="path847" d="M 103.43961,79.997267 A 98.401536,39.845546 0 0 1 6.6151796,112.95577 98.401536,39.845546 0 0 1 -90.208818,80.145272 98.401536,39.845546 0 0 0 -91.786184,87.032262 98.401536,39.845546 0 0 0 6.6151796,126.87776 98.401536,39.845546 0 0 0 105.01697,87.032262 98.401536,39.845546 0 0 0 103.43961,79.997267 Z" style="opacity:1;fill:url(#linearGradient1001);fill-opacity:1;fill-rule:evenodd;stroke:none;stroke-width:13.82497501;stroke-linecap:square;stroke-linejoin:miter;stroke-miterlimit:4;stroke-dasharray:none;stroke-dashoffset:0;stroke-opacity:1;paint-order:normal"/> <path id="path852" d="m -22.505156,-127.9891 c -4.745651,1.95102 -7.319854,4.32603 -7.336258,6.76857 -1.97e-4,6.23488 16.322084,11.28931 36.4567751,11.28933 5.3883119,-0.004 10.7068089,-0.37768 15.5727879,-1.09435 0.616556,-0.40384 3.763696,-0.63554 4.268644,-1.00272 0,0 -41.379423,1.2623 -48.716702,-12.90494 -0.437208,-0.84419 -0.464895,-1.90972 -0.245247,-3.05589 z" style="fill:#870000;fill-opacity:1;stroke:none;stroke-width:0.2258396px;stroke-linecap:butt;stroke-linejoin:miter;stroke-opacity:1"/> <path id="path857" d="m -8.4631572,-120.89548 c 4.5604808,4.06671 11.2308919,5.08253 17.2240002,6.27364 4.329967,0.86057 8.507992,1.40421 13.231682,0.57034 -5.24772,-0.80469 -13.1176138,-1.25474 -17.680265,-3.53607 -4.56264691,-2.28132 -10.3765587,-8.49962 -13.5738805,-4.90484 -0.3955251,0.44469 0.3542772,1.20083 0.7984633,1.59693 z" style="fill:#ff9d9d;fill-opacity:1;stroke:none;stroke-width:0.2258396px;stroke-linecap:butt;stroke-linejoin:miter;stroke-opacity:1"/> <path id="path859" d="m -7.1163073,-130.05419 c 0,0 -9.5596187,2.99913 -10.2440147,3.1132 -0.684398,0.11407 -4.382952,1.73175 -4.382952,1.73175 l -0.107147,-2.37581 c 5.08624,-1.50793 10.139356,-3.47958 15.3263899,-3.57639 z" style="fill:#ff9d9d;fill-opacity:1;stroke:none;stroke-width:0.2258396px;stroke-linecap:butt;stroke-linejoin:miter;stroke-opacity:1"/> <path id="circle866" d="M 5.1026639,-52.272274 -4.9992472,-29.59701 c 8.9804837,-0.430096 15.6018582,2.706065 21.3731592,7.616795 L 31.671899,-42.729671 C 23.923516,-48.08808 14.80108,-51.451322 5.1026639,-52.272274 Z m 32.5451631,14.323169 -15.114492,22.090819 c 3.597962,4.026269 7.065582,8.5519835 10.86015,13.0395908 L 49.582039,-22.050789 c -3.02276,-6.075937 -7.091967,-11.436112 -11.934212,-15.898316 z" style="opacity:1;fill:#8a8a8a;fill-opacity:1;fill-rule:evenodd;stroke:none;stroke-width:13.95253754;stroke-linecap:square;stroke-linejoin:miter;stroke-miterlimit:4;stroke-dasharray:none;stroke-dashoffset:0;stroke-opacity:1;paint-order:normal"/> <path id="circle878" d="m 60.708357,-40.268056 c -1.501583,5.097473 -3.34454,9.79948 -5.470434,14.140998 a 54.846761,54.846761 0 0 1 6.546702,25.8895118 54.846761,54.846761 0 0 1 -0.0049,0.0952772 c 4.106867,-3.321897 7.891488,-7.1537677 11.263357,-11.613097 a 67.106626,67.106626 0 0 0 -12.334725,-28.51269 z" style="opacity:1;fill:#e37474;fill-opacity:1;fill-rule:evenodd;stroke:none;stroke-width:17.07134056;stroke-linecap:square;stroke-linejoin:miter;stroke-miterlimit:4;stroke-dasharray:none;stroke-dashoffset:0;stroke-opacity:1;paint-order:normal"/> <path id="path886" d="M 52.957039,-23.466867 C 34.094103,15.053622 -7.0530034,25.168848 -29.851111,30.841382 -0.73334025,23.888727 35.101633,22.252689 59.498447,2.5201247 a 54.846761,54.846761 0 0 0 0.0049,-0.098364 54.846761,54.846761 0 0 0 -6.546262,-25.8886277 z" style="opacity:1;fill:#8a8a8a;fill-opacity:1;stroke:none;stroke-width:0.21920636px;stroke-linecap:butt;stroke-linejoin:miter;stroke-opacity:1"/> <path id="circle893" d="M 6.7436909,-65.747178 A 65.166975,65.166975 0 0 0 -58.423222,-0.58026787 65.166975,65.166975 0 0 0 -42.87178,41.557608 65.166975,65.166975 0 0 1 -55.916557,2.5526381 65.166975,65.166975 0 0 1 9.2503578,-62.61428 65.166975,65.166975 0 0 1 58.867542,-39.583525 65.166975,65.166975 0 0 0 6.7436909,-65.747178 Z" style="opacity:1;fill:#ea9696;fill-opacity:1;fill-rule:evenodd;stroke:none;stroke-width:16.57791138;stroke-linecap:square;stroke-linejoin:miter;stroke-miterlimit:4;stroke-dasharray:none;stroke-dashoffset:0;stroke-opacity:1;paint-order:normal"/> <path id="path922" d="m -46.618261,-94.444956 c 0,0 -24.519727,40.005877 -26.455495,52.910998 -1.935769,12.905119 -1.290513,25.81024 3.226279,30.327032 l 5.162048,5.1620479 -0.645256,26.4554961 c 0,0 -9.49053,-11.9670829 -17.421913,-21.29344636 C -97.548308,-18.280827 -56.364132,-99.604539 -46.618261,-94.444956 Z" style="fill:#ffc774;fill-opacity:1;stroke:none;stroke-width:0.2258396px;stroke-linecap:butt;stroke-linejoin:miter;stroke-opacity:1"/> <path id="path932" d="m -62.175972,139.78969 c -46.690998,27.76763 -40.120568,29.42598 -54.129938,67.80215 0,0 -0.98161,-28.80073 5.8073,-40.70811 9.22541,-16.18087 43.58443,-34.96796 43.58443,-34.96796 z" style="fill:url(#linearGradient942);fill-opacity:1;stroke:none;stroke-width:0.2258396px;stroke-linecap:butt;stroke-linejoin:miter;stroke-opacity:1"/> <path style="fill:url(#linearGradient950);fill-opacity:1;stroke:none;stroke-width:0.2258396px;stroke-linecap:butt;stroke-linejoin:miter;stroke-opacity:1" d="m 76.188482,142.52729 c 46.691008,27.76763 40.120568,29.42597 54.129948,67.80214 0,0 0.98161,-28.80073 -5.80731,-40.70811 -9.22541,-16.18087 -43.584427,-34.96796 -43.584427,-34.96796 z" id="path934"/> <path id="path968" d="m -89.692836,81.970534 a 81.127893,32.850963 0 0 0 -1.238279,5.086184 c 4.568479,4.903723 17.016634,8.721267 18.039115,9.914161 0,0 -0.125942,-0.200374 -0.13419,-0.213468 A 81.127893,32.850963 0 0 1 -89.692836,81.970534 Z" style="fill:#8a8a8a;fill-opacity:1;stroke:none;stroke-width:0.18619516px;stroke-linecap:butt;stroke-linejoin:miter;stroke-opacity:1"/> <path id="ellipse990" d="m 42.8572,-120.66267 c -2.461535,5.5886 -18.027132,10.72498 -36.2418389,10.73147 -18.2137631,-0.007 -33.6176961,-4.17444 -36.0805241,-9.7627 -0.236684,0.56307 -0.362391,1.13102 -0.376251,1.69997 3.38e-4,6.94749 16.322456,12.57949 36.4567751,12.57953 20.1343189,-4e-5 36.4564479,-5.63204 36.4567749,-12.57953 -0.01375,-0.56924 0.02186,-2.10538 -0.214936,-2.66874 z" style="opacity:1;fill:#c24c00;fill-opacity:1;fill-rule:evenodd;stroke:none;stroke-width:15.71713638;stroke-linecap:square;stroke-linejoin:miter;stroke-miterlimit:4;stroke-dasharray:none;stroke-dashoffset:0;stroke-opacity:1;paint-order:normal"/> <path id="path1003" d="m 10.970838,-135.2574 -2.5810226,-38.87667 c 0,0 5.9686166,38.55405 6.9365016,40.48982 0.967884,1.93576 6.291246,4.6781 6.291246,4.6781 -3.539227,-1.96155 -6.720054,1.09452 -10.646725,-6.29125 z" style="fill:#ff9d9d;fill-opacity:1;stroke:none;stroke-width:0.2258396px;stroke-linecap:butt;stroke-linejoin:miter;stroke-opacity:1"/> </g> </g> </svg>